<?xml version="1.0" encoding="UTF-8" standalone="no"?>
<!-- Created with Inkscape (http://www.inkscape.org/) -->

<svg
   width="905"
   height="145"
   viewBox="0 0 239.44792 38.364584"
   version="1.1"
   id="svg5"
   inkscape:version="1.2.1 (9c6d41e, 2022-07-14)"
   sodipodi:docname="lectronz-logo-tiny-margin.svg"
   inkscape:export-filename="/Users/pannetra/Pictures/lectronz-logo.png"
   inkscape:export-xdpi="96"
   inkscape:export-ydpi="96"
   xmlns:inkscape="http://www.inkscape.org/namespaces/inkscape"
   xmlns:sodipodi="http://sodipodi.sourceforge.net/DTD/sodipodi-0.dtd"
   xmlns="http://www.w3.org/2000/svg"
   xmlns:svg="http://www.w3.org/2000/svg">
  <sodipodi:namedview
     id="namedview7"
     pagecolor="#000000"
     bordercolor="#666666"
     borderopacity="1.0"
     inkscape:pageshadow="2"
     inkscape:pageopacity="0"
     inkscape:pagecheckerboard="false"
     inkscape:document-units="mm"
     showgrid="true"
     units="px"
     inkscape:snap-text-baseline="true"
     inkscape:snap-global="true"
     inkscape:zoom="0.90583671"
     inkscape:cx="342.22504"
     inkscape:cy="229.06998"
     inkscape:window-width="1806"
     inkscape:window-height="969"
     inkscape:window-x="1973"
     inkscape:window-y="38"
     inkscape:window-maximized="0"
     inkscape:current-layer="layer1"
     inkscape:snap-bbox="true"
     inkscape:showpageshadow="2"
     inkscape:deskcolor="#000000"
     showguides="false">
    <inkscape:grid
       type="xygrid"
       id="grid9"
       originx="0"
       originy="0" />
  </sodipodi:namedview>
  <defs
     id="defs2" />
  <g
     inkscape:label="Layer 1"
     inkscape:groupmode="layer"
     id="layer1">
    <g
       id="g605">
      <g
         id="g10921"
         transform="matrix(0.93137192,0,0,1.025641,3.095275,-34.728976)"
         style="fill:#00ccff">
        <path
           id="rect6931"
           style="stroke-width:0.3175"
           d="m 219.60416,37.041668 h 3.17501 v 3.175 h -3.17501 z" />
        <path
           id="rect6933"
           style="stroke-width:0.3175"
           d="m 223.57291,37.041668 h 3.17501 v 3.175 h -3.17501 z" />
        <path
           id="rect6935"
           style="stroke-width:0.3175"
           d="m 227.54166,37.041668 h 3.17501 v 3.175 h -3.17501 z" />
        <path
           id="rect6937"
           style="stroke-width:0.3175"
           d="m 231.51041,37.041668 h 3.17501 v 3.175 h -3.17501 z" />
        <path
           id="rect6939"
           style="stroke-width:0.3175"
           d="m 235.47916,37.041668 h 3.17501 v 3.175 h -3.17501 z" />
        <path
           id="rect6941"
           style="stroke-width:0.3175"
           d="m 239.44791,37.041668 h 3.17501 v 3.175 h -3.17501 z" />
        <path
           id="rect6943"
           style="stroke-width:0.3175"
           d="m 243.41666,37.041668 h 3.17501 v 3.175 h -3.17501 z" />
        <path
           id="rect6945"
           style="stroke-width:0.3175"
           d="m 219.60416,41.010418 h 3.17501 v 3.175 h -3.17501 z" />
        <path
           id="rect6947"
           style="stroke-width:0.3175"
           d="m 223.57291,41.010418 h 3.17501 v 3.175 h -3.17501 z" />
        <path
           id="rect6949"
           style="stroke-width:0.3175"
           d="m 227.54166,41.010418 h 3.17501 v 3.175 h -3.17501 z" />
        <path
           id="rect7864"
           style="stroke-width:0.3175"
           d="m 231.51042,41.010418 h 3.175 v 3.175 h -3.175 z" />
        <path
           id="rect8003"
           style="stroke-width:0.317501"
           d="m 235.47916,41.010418 h 3.17501 v 3.175 h -3.17501 z" />
        <path
           id="rect8005"
           style="stroke-width:0.3175"
           d="m 239.44791,41.010418 h 3.17501 v 3.175 h -3.17501 z" />
        <path
           id="rect8007"
           style="stroke-width:0.3175"
           d="m 243.41666,41.010418 h 3.17501 v 3.175 h -3.17501 z" />
        <path
           id="rect8091"
           style="stroke-width:0.3175"
           d="m 243.41667,44.979168 h 3.175 v 3.175 h -3.175 z" />
        <path
           id="rect8093"
           style="stroke-width:0.3175"
           d="m 239.44792,48.947918 h 3.175 v 3.175 h -3.175 z" />
        <path
           id="rect8095"
           style="stroke-width:0.3175"
           d="m 239.44792,44.979168 h 3.175 v 3.175 h -3.175 z" />
        <path
           id="rect8097"
           style="stroke-width:0.3175"
           d="m 235.47917,44.979168 h 3.175 v 3.175 h -3.175 z" />
        <path
           id="rect8099"
           style="stroke-width:0.3175"
           d="m 235.47917,52.916668 h 3.175 v 3.175 h -3.175 z" />
        <path
           id="rect8101"
           style="stroke-width:0.3175"
           d="m 231.51042,56.885418 h 3.175 v 3.175 h -3.175 z" />
        <path
           id="rect8103"
           style="stroke-width:0.3175"
           d="m 227.54167,60.854168 h 3.175 v 3.175 h -3.175 z" />
        <path
           id="rect8105"
           style="stroke-width:0.264583"
           d="m 223.57292,60.854168 h 2.64584 v 2.645833 h -2.64584 z" />
        <path
           id="rect8107"
           style="stroke-width:0.3175"
           d="m 223.57292,60.854168 h 3.175 v 3.175 h -3.175 z" />
        <path
           id="rect8109"
           style="stroke-width:0.3175"
           d="m 219.60417,60.854168 h 3.175 v 3.175 h -3.175 z" />
        <path
           id="rect8111"
           style="stroke-width:0.264583"
           d="m 227.54167,56.885418 h 2.64584 v 2.645833 h -2.64584 z" />
        <path
           id="rect8113"
           style="stroke-width:0.3175"
           d="m 227.54167,56.885418 h 3.175 v 3.175 h -3.175 z" />
        <path
           id="rect8115"
           style="stroke-width:0.317499"
           d="m 223.57292,56.885418 h 3.17499 v 3.174999 h -3.17499 z" />
        <path
           id="rect8117"
           style="stroke-width:0.3175"
           d="m 219.60417,64.822914 h 3.175 v 3.175 h -3.175 z" />
        <path
           id="rect8119"
           style="stroke-width:0.3175"
           d="m 223.57292,64.822914 h 3.175 v 3.175 h -3.175 z" />
        <path
           id="rect8121"
           style="stroke-width:0.3175"
           d="m 227.54167,64.822914 h 3.175 v 3.175 h -3.175 z" />
        <path
           id="rect8123"
           style="stroke-width:0.3175"
           d="m 231.51042,64.822914 h 3.175 v 3.175 h -3.175 z" />
        <path
           id="rect8125"
           style="stroke-width:0.3175"
           d="m 235.47917,64.822914 h 3.175 v 3.175 h -3.175 z" />
        <path
           id="rect8127"
           style="stroke-width:0.303983"
           d="m 239.44792,64.822914 h 2.91042 v 3.175 h -2.91042 z" />
        <path
           id="rect8129"
           style="stroke-width:0.3175"
           d="m 243.41667,64.822914 h 3.175 v 3.175 h -3.175 z" />
        <path
           id="rect8131"
           style="stroke-width:0.3175"
           d="m 231.51042,60.854168 h 3.175 v 3.175 h -3.175 z" />
        <path
           id="rect8133"
           style="stroke-width:0.3175"
           d="m 235.47917,60.854168 h 3.175 v 3.175 h -3.175 z" />
        <path
           id="rect8135"
           style="stroke-width:0.3175"
           d="m 239.44792,60.854168 h 3.175 v 3.175 h -3.175 z" />
        <path
           id="rect8137"
           style="stroke-width:0.3175"
           d="m 243.41667,60.854168 h 3.175 v 3.175 h -3.175 z" />
        <path
           id="rect10751"
           style="stroke-width:0.3175"
           d="m 235.47917,48.947918 h 3.175 v 3.175 h -3.175 z" />
        <path
           id="rect10753"
           style="stroke-width:0.3175"
           d="m 231.51042,48.947918 h 3.175 v 3.175 h -3.175 z" />
        <path
           id="rect10755"
           style="stroke-width:0.3175"
           d="m 231.51042,52.916668 h 3.175 v 3.175 h -3.175 z" />
        <path
           id="rect10757"
           style="stroke-width:0.3175"
           d="m 227.54167,52.916668 h 3.175 v 3.175 h -3.175 z" />
        <path
           id="rect10759"
           style="stroke-width:0.3175"
           d="m 247.38542,41.010418 h 3.175 v 3.175 h -3.175 z" />
        <path
           id="rect10789"
           style="stroke-width:0.3175"
           d="m 247.38542,37.041668 h 3.175 v 3.175 h -3.175 z" />
        <path
           id="rect10791"
           style="stroke-width:0.3175"
           d="m 247.38542,64.822914 h 3.175 v 3.175002 h -3.175 z" />
        <path
           id="rect10793"
           style="stroke-width:0.3175"
           d="m 247.38542,60.854168 h 3.175 v 3.175 h -3.175 z" />
      </g>
      <path
         d="M 2.9876997,3.3446121 H 5.9664152 V 32.335618 H 20.859992 v 2.684353 H 2.9876997 Z"
         style="font-weight:300;font-size:44.9352px;line-height:1.25;font-family:Avenir;-inkscape-font-specification:'Avenir, Light';fill:#000000;stroke-width:0.263292"
         id="path387" />
      <path
         d="M 25.553639,3.3446121 H 45.095818 V 6.0289645 H 28.532355 V 17.303245 H 44.05778 v 2.684352 H 28.532355 v 12.348021 h 17.285576 v 2.684353 H 25.553639 Z"
         style="font-weight:300;font-size:44.9352px;line-height:1.25;font-family:Avenir;-inkscape-font-specification:'Avenir, Light';fill:#000000;stroke-width:0.263292"
         id="path389" />
      <path
         d="m 78.628866,30.053918 q -2.301735,3.087005 -5.325583,4.429182 -3.023847,1.342176 -6.544146,1.342176 -3.655697,0 -6.724676,-1.207958 -3.023848,-1.252699 -5.190186,-3.44492 -2.166339,-2.23696 -3.384904,-5.279226 -1.218566,-3.087005 -1.218566,-6.710881 0,-3.623875 1.218566,-6.666142 1.218565,-3.0422656 3.384904,-5.2344867 2.166338,-2.2369603 5.190186,-3.4896581 3.068979,-1.2526978 6.724676,-1.2526978 3.249507,0 6.047694,1.1632194 2.84332,1.1184801 4.964526,3.8028325 L 75.334226,9.5186226 Q 73.844869,7.2816623 71.498001,6.2526606 69.196267,5.2236588 66.759137,5.2236588 q -3.114112,0 -5.641507,1.073741 -2.482263,1.0737409 -4.242413,2.9527876 -1.76015,1.8790466 -2.707923,4.4291806 -0.947773,2.550136 -0.947773,5.502923 0,2.952788 0.947773,5.502922 0.947773,2.550135 2.707923,4.429182 1.76015,1.879047 4.242413,2.952787 2.527395,1.073741 5.641507,1.073741 1.218565,0 2.527395,-0.268435 1.308828,-0.313174 2.527394,-0.894784 1.263697,-0.626349 2.391998,-1.521133 1.128302,-0.939523 1.985811,-2.23696 z"
         style="font-weight:300;font-size:44.9352px;line-height:1.25;font-family:Avenir;-inkscape-font-specification:'Avenir, Light';fill:#000000;stroke-width:0.263292"
         id="path391" />
      <path
         d="M 91.175511,6.0289645 H 80.253554 V 3.3446121 H 105.07618 V 6.0289645 H 94.154227 V 35.019971 h -2.978716 z"
         style="font-weight:300;font-size:44.9352px;line-height:1.25;font-family:Avenir;-inkscape-font-specification:'Avenir, Light';fill:#000000;stroke-width:0.263292"
         id="path393" />
      <path
         d="m 112.97427,17.303245 h 6.31848 q 2.34686,0 3.79109,-0.58161 1.48936,-0.58161 2.30174,-1.431654 0.81238,-0.850045 1.08317,-1.834309 0.31593,-0.984262 0.31593,-1.789568 0,-0.805305 -0.31593,-1.7895677 -0.27079,-0.9842626 -1.08317,-1.8343075 -0.81238,-0.8500449 -2.30174,-1.4316546 -1.44423,-0.5816097 -3.79109,-0.5816097 h -6.31848 z M 109.99555,3.3446121 h 8.39456 q 0.63185,0 1.71502,0.044739 1.08317,0.044739 2.34687,0.2684353 1.26369,0.223696 2.57252,0.7158273 1.30884,0.4921313 2.34687,1.4316546 1.03803,0.9395233 1.71502,2.3711779 0.67698,1.4316547 0.67698,3.4896578 0,2.2817 -0.81238,3.758094 -0.76724,1.476394 -1.98581,2.415917 -1.17344,0.894784 -2.61765,1.342176 -1.44423,0.447392 -2.75306,0.626349 l 9.2972,15.211331 h -3.3849 l -8.98128,-15.032374 h -5.55124 v 15.032374 h -2.97872 z"
         style="font-weight:300;font-size:44.9352px;line-height:1.25;font-family:Avenir;-inkscape-font-specification:'Avenir, Light';fill:#000000;stroke-width:0.263292"
         id="path395" />
      <path
         d="m 134.68271,19.182291 q 0,-3.623875 1.21857,-6.666142 1.21856,-3.0422656 3.3849,-5.2344867 2.16634,-2.2369603 5.19019,-3.4896581 3.06898,-1.2526978 6.72467,-1.2526978 3.65571,0 6.67955,1.2526978 3.06898,1.2526978 5.23532,3.4896581 2.16634,2.1922211 3.38491,5.2344867 1.21856,3.042267 1.21856,6.666142 0,3.623876 -1.21856,6.710881 -1.21857,3.042266 -3.38491,5.279226 -2.16634,2.192221 -5.23532,3.44492 -3.02384,1.207958 -6.67955,1.207958 -3.65569,0 -6.72467,-1.207958 -3.02385,-1.252699 -5.19019,-3.44492 -2.16634,-2.23696 -3.3849,-5.279226 -1.21857,-3.087005 -1.21857,-6.710881 z m 2.97872,0 q 0,2.952788 0.94777,5.502922 0.94777,2.550135 2.70793,4.429182 1.76015,1.879047 4.24241,2.952787 2.5274,1.073741 5.6415,1.073741 3.11412,0 5.59638,-1.073741 2.5274,-1.07374 4.28754,-2.952787 1.76016,-1.879047 2.70793,-4.429182 0.94777,-2.550134 0.94777,-5.502922 0,-2.952787 -0.94777,-5.502923 -0.94777,-2.550134 -2.70793,-4.4291806 -1.76014,-1.8790467 -4.28754,-2.9527876 -2.48226,-1.073741 -5.59638,-1.073741 -3.1141,0 -5.6415,1.073741 -2.48226,1.0737409 -4.24241,2.9527876 -1.76016,1.8790466 -2.70793,4.4291806 -0.94777,2.550136 -0.94777,5.502923 z"
         style="font-weight:300;font-size:44.9352px;line-height:1.25;font-family:Avenir;-inkscape-font-specification:'Avenir, Light';fill:#000000;stroke-width:0.263292"
         id="path397" />
      <path
         d="m 174.3989,3.3446121 h 3.83623 L 197.68704,31.08292 h 0.0903 V 3.3446121 h 2.97872 V 35.019971 h -3.83623 L 177.46788,7.2816623 h -0.0903 V 35.019971 h -2.97872 z"
         style="font-weight:300;font-size:44.9352px;line-height:1.25;font-family:Avenir;-inkscape-font-specification:'Avenir, Light';fill:#000000;stroke-width:0.263292"
         id="path399" />
    </g>
  </g>
</svg>
